
nColumns=19
nRows=30
DataType=double
version=3
OpenSimVersion=4.4-2022-10-11-798caa840
endheader
time	ground_force_calcn_r_vx	ground_force_calcn_r_vy	ground_force_calcn_r_vz	ground_force_calcn_r_px	ground_force_calcn_r_py	ground_force_calcn_r_pz	ground_force_calcn_r_mx	ground_force_calcn_r_my	ground_force_calcn_r_mz	ground_force_calcn_l_vx	ground_force_calcn_l_vy	ground_force_calcn_l_vz	ground_force_calcn_l_px	ground_force_calcn_l_py	ground_force_calcn_l_pz	ground_force_calcn_l_mx	ground_force_calcn_l_my	ground_force_calcn_l_mz
1	-128.748	204	-19.1975	-0.122487	0	-0.430646	-0.398734	0.631789	-0.059455	-65.3436	91.9699	7.8058	-0.0758173	0	-0.77249	0.20722	-0.291658	-0.0247541
1.01	-320.955	529.808	-65.7871	-0.125801	0	-0.433875	-1.59863	2.6389	-0.327676	-261.48	400.589	35.6669	-0.0888086	0	-0.775671	0.655975	-1.00496	-0.0894779
1.02	-261.733	577.4	-67.9087	-0.133451	0	-0.437641	-2.12055	4.67808	-0.550194	-342.744	643.362	68.9422	-0.0945298	0	-0.76974	1.97728	-3.71155	-0.397726
1.03	-166.661	496.843	-45.1069	-0.144472	0	-0.439224	-1.26515	3.77163	-0.342416	-242.262	699.841	54.0095	-0.103442	0	-0.761893	1.70254	-4.91827	-0.379562
1.04	-206.675	526.827	-55.0216	-0.154334	0	-0.440001	-0.251861	0.642011	-0.06705129999999999	-226.238	780.022	40.6952	-0.119273	0	-0.7560210000000001	0.108792	-0.375091	-0.0195692
1.05	-182.853	668.968	-41.2627	-0.185475	0	-0.45099	0.671774	-2.45769	0.151593	-183.128	1024.3	23.2385	-0.161229	0	-0.746638	-0.7456469999999999	4.17066	0.0946206
1.06	-48.8821	963.713	-0.20513	-0.227406	0	-0.46983	0.428475	-8.4474	0.00179806	-32.688	1351.46	-22.1799	-0.199443	0	-0.73766	-0.186073	7.69303	-0.126256
1.07	19.3787	1067.73	23.6344	-0.236759	0	-0.479459	-0.266513	-14.6844	-0.325041	-18.6451	1258.9	-25.6285	-0.20127	0	-0.736629	-0.124043	8.375310000000001	-0.170503
1.08	-104.025	877.228	-9.824439999999999	-0.212507	0	-0.475773	1.63509	-13.7884	0.154423	-166.473	950.422	22.964	-0.173524	0	-0.743826	-1.11736	6.3792	0.154133
1.09	-202.208	682.727	-45.8163	-0.178786	0	-0.468387	2.68848	-9.077249999999999	0.609154	-239.57	747.7380000000001	65.994	-0.14426	0	-0.752309	-0.962152	3.00303	0.265042
1.1	-214.893	611.048	-46.9267	-0.161757	0	-0.467754	2.51828	-7.16071	0.549922	-216.385	692.905	88.31570000000001	-0.136525	0	-0.754829	-0.245617	0.786514	0.100247
1.11	-192.901	613.417	-22.53	-0.159738	0	-0.472335	2.58639	-8.224629999999999	0.30208	-182.868	727.9829999999999	92.8792	-0.14136	0	-0.751789	-0.0686866	0.273436	0.0348861
1.12	-168.059	626.9640000000001	2.09246	-0.159638	0	-0.47693	2.58023	-9.62585	-0.0321258	-147.872	808.167	75.5741	-0.150929	0	-0.745038	-0.324079	1.77119	0.165629
1.13	-155.861	653.082	10.5668	-0.159453	0	-0.479377	2.35139	-9.852679999999999	-0.159416	-91.11620000000001	877.3630000000001	36.8032	-0.161244	0	-0.736779	-0.457819	4.40837	0.18492
1.14	-139.06	686.2430000000001	1.69285	-0.160369	0	-0.479991	1.79585	-8.86229	-0.0218618	-42.635	901.114	6.24107	-0.166525	0	-0.730538	-0.29018	6.13311	0.0424776
1.15	-110.489	717.138	-12.4817	-0.161568	0	-0.47967	1.16273	-7.54678	0.13135	-29.4064	886.472	4.14575	-0.163067	0	-0.728633	-0.19235	5.79849	0.0271177
1.16	-91.00879999999999	745.127	-22.8705	-0.160281	0	-0.478751	0.809629	-6.62878	0.20346	-43.1863	856.476	21.336	-0.152158	0	-0.730026	-0.210603	4.1767	0.104047
1.17	-90.20740000000001	762.7	-28.0169	-0.155449	0	-0.477418	0.759514	-6.42166	0.235892	-68.9345	819.91	37.076	-0.137815	0	-0.731575	-0.241886	2.87701	0.130097
1.18	-94.1469	769.826	-30.3124	-0.149384	0	-0.475939	0.829753	-6.78477	0.267155	-94.0457	789.865	39.8255	-0.124204	0	-0.731499	-0.309125	2.59626	0.130905
1.19	-95.1253	769.049	-32.6515	-0.143771	0	-0.474602	0.85501	-6.9124	0.29348	-113.323	776.874	29.6071	-0.114148	0	-0.7297360000000001	-0.448319	3.0734	0.117129
1.2	-94.3398	761.842	-34.4053	-0.138903	0	-0.473723	0.811991	-6.55724	0.296129	-128.399	783.197	14.9289	-0.107844	0	-0.7273309999999999	-0.578699	3.52989	0.06728480000000001
1.21	-93.12990000000001	745.4400000000001	-34.8646	-0.13491	0	-0.473391	0.74319	-5.94872	0.278224	-135.514	802.269	7.39767	-0.104266	0	-0.725811	-0.564683	3.34303	0.0308258
1.22	-95.11020000000001	721.828	-36.1951	-0.131284	0	-0.473117	0.699883	-5.31168	0.266347	-128.058	830.9589999999999	10.0832	-0.102829	0	-0.725365	-0.369459	2.39739	0.0290911
1.23	-101.016	696.747	-38.0099	-0.127793	0	-0.472911	0.703846	-4.85472	0.264842	-113.385	869.179	20.0791	-0.102654	0	-0.7258019999999999	-0.135161	1.0361	0.0239353
1.24	-105.742	674.167	-37.3949	-0.124709	0	-0.47308	0.735496	-4.68921	0.260103	-99.922	903.808	29.4829	-0.102551	0	-0.726398	-0.000968542	0.0087606	0.000285777
1.25	-106.726	658.6319999999999	-32.6886	-0.122324	0	-0.473683	0.774159	-4.77752	0.237113	-90.4507	922.8339999999999	32.7054	-0.102045	0	-0.726747	0.0363777	-0.371147	-0.0131536
1.26	-103.859	652.627	-25.8766	-0.120782	0	-0.474655	0.807056	-5.07139	0.20108	-85.91419999999999	927.568	30.7808	-0.101272	0	-0.726804	0.0376449	-0.406431	-0.0134872
1.27	-96.3485	654.063	-19.5368	-0.120242	0	-0.47567	0.809092	-5.49254	0.164062	-82.6033	924.668	28.3442	-0.100726	0	-0.726892	0.0504674	-0.564937	-0.0173172
1.28	-85.34229999999999	660.7619999999999	-14.8935	-0.120618	0	-0.47651	0.769246	-5.95588	0.134244	-76.5958	918.807	29.1917	-0.10078	0	-0.727206	0.0972203	-1.16621	-0.037052
1.29	-72.8484	672.7	-11.6151	-0.121639	0	-0.477216	0.68315	-6.30837	0.108923	-69.4522	912.2809999999999	32.7118	-0.101434	0	-0.727736	0.150126	-1.97196	-0.0707088
